<svg
  width="74"
  height="35"
  viewBox="0 0 74 35"
  fill="none"
  xmlns="http://www.w3.org/2000/svg">
  <g filter="url(#filter0_d_6_86)">
    <path
      fill-rule="evenodd"
      clip-rule="evenodd"
      d="M0.0495685 9.16848C-0.135189 9.59789 0.222923 10.0482 0.687226 9.9938V9.9938C5.37242 9.44494 9.61546 12.7981 10.1643 17.4833C10.3363 18.951 10.1253 20.3753 9.61037 21.6563C8.42805 24.5976 7.96246 28.9858 11.0864 29.524C14.361 30.0881 17.8443 29.5535 20.9469 27.7622L21.4081 27.4959C28.4551 23.4273 30.8696 14.4163 26.801 7.36931C22.7324 0.322292 13.7214 -2.0922 6.67441 1.9764L6.21317 2.2427C3.35602 3.89228 1.26037 6.3543 0.0495685 9.16848Z"
      fill="#DF3473" />
    <path
      d="M17.3608 8.97038L20.8135 8.05642L21.6463 11.1436L18.2138 12.0779L17.3608 8.97038ZM16.5078 22.1315L17.9295 21.7049V16.7695C17.9295 16.4716 17.9024 16.2821 17.8482 16.2008C17.8076 16.1061 17.6925 16.0045 17.503 15.8962L16.6093 15.4087L16.7109 13.8855C17.8347 13.6688 18.7013 13.5131 19.3106 13.4183C19.9334 13.31 20.5021 13.2491 21.0166 13.2355C21.1927 13.8178 21.301 14.2511 21.3416 14.5354V21.0347C21.3416 21.319 21.3619 21.5086 21.4025 21.6034C21.4432 21.6982 21.5583 21.7997 21.7478 21.908L22.743 22.4767L22.6618 24H16.5687L16.5078 22.1315ZM23.5489 22.1315L24.9706 21.7049V15.754L23.5489 15.7337V13.7433L24.9706 13.6621V12.3419C24.9706 11.1097 25.3295 10.1551 26.0471 9.47814C26.7647 8.80113 27.8073 8.46262 29.1749 8.46262C29.879 8.46262 30.732 8.55063 31.734 8.72666L31.2668 11.4889C30.6711 11.3264 30.1498 11.2181 29.7029 11.1639C29.2697 11.0962 28.8296 11.0691 28.3828 11.0827V13.4793L30.6981 13.3371V15.8353L28.3828 15.7946V21.0347C28.3828 21.319 28.4031 21.5086 28.4437 21.6034C28.4843 21.6982 28.5994 21.7997 28.789 21.908L30.0482 22.5986L29.9873 24H23.6099L23.5489 22.1315ZM31.7801 22.1315L33.2019 21.7049V15.754L31.7801 15.7337V13.7433L33.2019 13.6621V12.3419C33.2019 11.1097 33.5607 10.1551 34.2783 9.47814C34.9959 8.80113 36.0385 8.46262 37.4061 8.46262C38.1102 8.46262 38.9632 8.55063 39.9652 8.72666L39.4981 11.4889C38.9023 11.3264 38.381 11.2181 37.9342 11.1639C37.5009 11.0962 37.0608 11.0691 36.614 11.0827V13.4793L38.9294 13.3371V15.8353L36.614 15.7946V21.0347C36.614 21.319 36.6343 21.5086 36.6749 21.6034C36.7156 21.6982 36.8306 21.7997 37.0202 21.908L38.2794 22.5986L38.2185 24H31.8411L31.7801 22.1315ZM44.5007 24.2843C43.4175 24.2843 42.6119 23.9661 42.0838 23.3298C41.5557 22.6798 41.2917 21.7049 41.2917 20.4051V16.7695C41.2917 16.4716 41.2646 16.2821 41.2105 16.2008C41.1699 16.1061 41.0548 16.0045 40.8652 15.8962L39.9512 15.4087L40.0528 13.8855C40.2423 13.8584 40.3778 13.8313 40.459 13.8042C40.6079 13.7772 41.136 13.6824 42.0432 13.5199C42.9639 13.3574 43.729 13.2626 44.3383 13.2355C44.4872 13.574 44.6023 13.9667 44.6835 14.4135V19.5317C44.6835 20.1275 44.6971 20.5472 44.7242 20.791C44.7648 21.0347 44.8731 21.2243 45.0491 21.3597C45.2387 21.4815 45.5569 21.5425 46.0037 21.5425C46.6536 21.5425 47.2833 21.4274 47.8926 21.1972V16.7695C47.8926 16.4716 47.8723 16.2821 47.8316 16.2008C47.791 16.1061 47.6827 16.0045 47.5067 15.8962L46.613 15.4087L46.6943 13.8855C47.791 13.6824 48.644 13.5267 49.2534 13.4183C49.8762 13.31 50.4449 13.2491 50.9594 13.2355C51.1084 13.574 51.2235 13.9667 51.3047 14.4135V21.0753C51.3047 21.319 51.325 21.4883 51.3656 21.5831C51.4062 21.6779 51.501 21.7726 51.65 21.8674L52.4624 22.3346L52.4014 23.5938C51.8192 23.7427 51.149 23.8781 50.3907 24C49.6325 24.1083 48.9284 24.176 48.2785 24.2031C48.2243 24.0406 48.1634 23.8375 48.0957 23.5938C48.0821 23.4855 48.0483 23.3568 47.9941 23.2079H47.9332C47.378 23.5329 46.789 23.7969 46.1662 24C45.5569 24.1896 45.0017 24.2843 44.5007 24.2843ZM56.9789 24.3453C55.9092 24.3453 54.6703 24.1557 53.2621 23.7766C53.3433 22.4496 53.4313 21.468 53.5261 20.8316L54.6838 20.6082L55.9634 21.969C56.4102 22.1044 56.9112 22.1721 57.4663 22.1721C57.7777 22.1721 58.0215 22.1518 58.1975 22.1111C58.2381 22.0028 58.2584 21.8539 58.2584 21.6643C58.2584 21.5018 58.2178 21.3664 58.1366 21.2581C58.0689 21.1498 57.9064 21.0212 57.6491 20.8722C57.3919 20.7233 56.945 20.4931 56.3086 20.1817C55.5098 19.7619 54.9005 19.3896 54.4807 19.0646C54.061 18.7261 53.7563 18.3808 53.5667 18.0288C53.3907 17.6767 53.3027 17.257 53.3027 16.7695C53.3027 15.6863 53.7021 14.8265 54.501 14.1901C55.3134 13.5537 56.4102 13.2355 57.7913 13.2355C58.36 13.2355 58.9557 13.3032 59.5786 13.4386C60.215 13.5605 60.7837 13.7298 61.2847 13.9464C61.2847 14.8265 61.2237 15.8082 61.1019 16.8914L60.0457 17.0539L58.6849 15.5915C58.3329 15.4832 57.8184 15.4291 57.1414 15.4291C57.033 15.4291 56.8164 15.4426 56.4914 15.4697C56.4508 15.5509 56.4305 15.6795 56.4305 15.8556C56.4305 16.0451 56.4847 16.2144 56.593 16.3633C56.7013 16.4987 56.8909 16.6544 57.1617 16.8305C57.446 16.9929 57.8928 17.2299 58.5022 17.5413C59.3958 17.9746 60.066 18.3537 60.5129 18.6787C60.9732 18.9901 61.2914 19.3083 61.4675 19.6333C61.657 19.9583 61.7518 20.3509 61.7518 20.8113C61.7518 21.9216 61.3253 22.7882 60.4722 23.411C59.6328 24.0339 58.4683 24.3453 56.9789 24.3453ZM67.9899 24.2437C66.4057 24.2437 65.1803 23.763 64.3138 22.8017C63.4607 21.8403 63.0342 20.5134 63.0342 18.8209C63.0342 17.6429 63.2441 16.6341 63.6638 15.7946C64.0836 14.9416 64.6793 14.2917 65.4511 13.8449C66.2229 13.398 67.1233 13.1746 68.1524 13.1746C69.6824 13.1746 70.8537 13.6621 71.6661 14.637C72.492 15.6118 72.8847 16.9997 72.8441 18.8006L66.6697 19.9379C66.8593 20.5066 67.1233 20.9264 67.4618 21.1972C67.8139 21.4544 68.2743 21.5831 68.8429 21.5831C69.2356 21.5831 69.7028 21.5289 70.2444 21.4206C70.786 21.2987 71.3343 21.1362 71.8895 20.9331L72.3566 22.9439C71.8556 23.323 71.2057 23.6344 70.4068 23.8781C69.608 24.1219 68.8023 24.2437 67.9899 24.2437ZM69.5132 17.0945C69.4861 16.58 69.3372 16.2076 69.0664 15.9774C68.8091 15.7337 68.4435 15.6118 67.9696 15.6118C67.5769 15.6118 67.2046 15.666 66.8525 15.7743C66.5682 16.4378 66.4396 17.1554 66.4666 17.9272L69.5132 17.0945Z"
      fill="white" />
  </g>
  <defs>
    <filter
      id="filter0_d_6_86"
      x="0"
      y="0"
      width="72.905"
      height="34.3507"
      filterUnits="userSpaceOnUse"
      color-interpolation-filters="sRGB">
      <feFlood
        flood-opacity="0"
        result="BackgroundImageFix" />
      <feColorMatrix
        in="SourceAlpha"
        type="matrix"
        values="0 0 0 0 0 0 0 0 0 0 0 0 0 0 0 0 0 0 127 0"
        result="hardAlpha" />
      <feOffset dy="4.61213" />
      <feComposite
        in2="hardAlpha"
        operator="out" />
      <feColorMatrix
        type="matrix"
        values="0 0 0 0 0 0 0 0 0 0 0 0 0 0 0 0 0 0 0.25 0" />
      <feBlend
        mode="normal"
        in2="BackgroundImageFix"
        result="effect1_dropShadow_6_86" />
      <feBlend
        mode="normal"
        in="SourceGraphic"
        in2="effect1_dropShadow_6_86"
        result="shape" />
    </filter>
  </defs>
</svg>
