<svg
  xmlns="http://www.w3.org/2000/svg"
  version="1.1"
  xmlns:xlink="http://www.w3.org/1999/xlink"
  xmlns:svgjs="http://svgjs.com/svgjs"
  width="1000"
  height="1000">
  <rect
    width="1000"
    height="1000"
    rx="250"
    ry="250"
    fill="#343538"></rect>
  <g
    transform="matrix(16.666666666666668,0,0,16.666666666666668,102.34685801093775,119.62673664093018)">
    <svg
      xmlns="http://www.w3.org/2000/svg"
      version="1.1"
      xmlns:xlink="http://www.w3.org/1999/xlink"
      xmlns:svgjs="http://svgjs.com/svgjs"
      width="48"
      height="48">
      <svg
        width="48"
        height="48"
        viewBox="0 0 48 48"
        fill="none"
        xmlns="http://www.w3.org/2000/svg">
        <g filter="url(#filter0_d_7_2)">
          <path
            fill-rule="evenodd"
            clip-rule="evenodd"
            d="M0.0591627 15.943C-0.161356 16.4555 0.26607 16.993 0.820241 16.9281V16.9281C6.41225 16.273 11.4765 20.2751 12.1316 25.8671C12.3369 27.6189 12.085 29.319 11.4704 30.8478C10.0593 34.3584 9.50359 39.596 13.2322 40.2383C17.1406 40.9116 21.298 40.2735 25.0011 38.1356L25.5516 37.8177C33.9626 32.9617 36.8444 22.2066 31.9883 13.7956C27.1322 5.38467 16.3772 2.50286 7.96622 7.35893L7.41572 7.67677C4.00557 9.64562 1.50431 12.5842 0.0591627 15.943Z"
            fill="#DF3473"></path>
          <path
            d="M20.7209 16.2227L24.842 15.1318L25.8359 18.8165L21.7391 19.9316L20.7209 16.2227ZM19.7028 31.9311L21.3997 31.422V25.5314C21.3997 25.1758 21.3674 24.9496 21.3027 24.8526C21.2542 24.7395 21.1169 24.6183 20.8906 24.489L19.824 23.9072L19.9452 22.0891C21.2866 21.8305 22.3209 21.6447 23.0481 21.5316C23.7915 21.4023 24.4703 21.3295 25.0844 21.3134C25.2945 22.0083 25.4238 22.5254 25.4722 22.8648V30.6221C25.4722 30.9614 25.4965 31.1877 25.545 31.3008C25.5934 31.4139 25.7308 31.5351 25.9571 31.6644L27.1449 32.3432L27.0479 34.1613H19.7755L19.7028 31.9311ZM28.1068 31.9311L29.8037 31.422V24.3193L28.1068 24.2951V21.9194L29.8037 21.8225V20.2468C29.8037 18.7761 30.2319 17.6368 31.0885 16.8287C31.945 16.0207 33.1894 15.6167 34.8216 15.6167C35.662 15.6167 36.6801 15.7217 37.876 15.9318L37.3185 19.2286C36.6074 19.0347 35.9852 18.9054 35.4519 18.8408C34.9348 18.76 34.4095 18.7276 33.8762 18.7438V21.6043L36.6397 21.4346V24.4163L33.8762 24.3678V30.6221C33.8762 30.9614 33.9005 31.1877 33.9489 31.3008C33.9974 31.4139 34.1348 31.5351 34.361 31.6644L35.864 32.4886L35.7913 34.1613H28.1795L28.1068 31.9311ZM37.9311 31.9311L39.628 31.422V24.3193L37.9311 24.2951V21.9194L39.628 21.8225V20.2468C39.628 18.7761 40.0563 17.6368 40.9128 16.8287C41.7694 16.0207 43.0137 15.6167 44.646 15.6167C45.4864 15.6167 46.5045 15.7217 47.7004 15.9318L47.1428 19.2286C46.4318 19.0347 45.8096 18.9054 45.2763 18.8408C44.7591 18.76 44.2339 18.7276 43.7006 18.7438V21.6043L46.4641 21.4346V24.4163L43.7006 24.3678V30.6221C43.7006 30.9614 43.7248 31.1877 43.7733 31.3008C43.8218 31.4139 43.9592 31.5351 44.1854 31.6644L45.6884 32.4886L45.6156 34.1613H38.0039L37.9311 31.9311Z"
            fill="white"></path>
        </g>
        <defs>
          <filter
            id="filter0_d_7_2"
            x="0"
            y="5"
            width="47.7004"
            height="40.9993"
            filterUnits="userSpaceOnUse"
            color-interpolation-filters="sRGB">
            <feFlood
              flood-opacity="0"
              result="BackgroundImageFix"></feFlood>
            <feColorMatrix
              in="SourceAlpha"
              type="matrix"
              values="0 0 0 0 0 0 0 0 0 0 0 0 0 0 0 0 0 0 127 0"
              result="hardAlpha"></feColorMatrix>
            <feOffset dy="5.5048"></feOffset>
            <feComposite
              in2="hardAlpha"
              operator="out"></feComposite>
            <feColorMatrix
              type="matrix"
              values="0 0 0 0 0 0 0 0 0 0 0 0 0 0 0 0 0 0 0.25 0"></feColorMatrix>
            <feBlend
              mode="normal"
              in2="BackgroundImageFix"
              result="effect1_dropShadow_7_2"></feBlend>
            <feBlend
              mode="normal"
              in="SourceGraphic"
              in2="effect1_dropShadow_7_2"
              result="shape"></feBlend>
          </filter>
        </defs>
      </svg>
    </svg>
  </g>
</svg>
